<mxfile host="app.diagrams.net" modified="2023-08-02T07:44:58.839Z" agent="Mozilla/5.0 (Windows NT 10.0; Win64; x64) AppleWebKit/537.36 (KHTML, like Gecko) Chrome/115.0.0.0 Safari/537.36 Edg/115.0.1901.188" etag="jfHGvYpyxEWNDof0x5JR" version="21.6.6" type="github">
  <diagram name="第 1 页" id="xIP1L7UhcC2tInQek6bY">
    <mxGraphModel dx="996" dy="541" grid="1" gridSize="10" guides="1" tooltips="1" connect="1" arrows="1" fold="1" page="1" pageScale="1" pageWidth="827" pageHeight="1169" math="0" shadow="0">
      <root>
        <mxCell id="0" />
        <mxCell id="1" parent="0" />
        <mxCell id="2ZWqnjDRBpzL2C1Y5E5V-1" value="总体流程" style="swimlane;childLayout=stackLayout;resizeParent=1;resizeParentMax=0;startSize=20;html=1;container=0;" vertex="1" parent="1">
          <mxGeometry x="70" y="45" width="830" height="540" as="geometry" />
        </mxCell>
        <mxCell id="2ZWqnjDRBpzL2C1Y5E5V-5" value="推荐" style="swimlane;startSize=20;html=1;" vertex="1" parent="1">
          <mxGeometry x="690.0000000000005" y="65" width="210" height="520" as="geometry" />
        </mxCell>
        <mxCell id="2ZWqnjDRBpzL2C1Y5E5V-9" value="保存优惠券" style="whiteSpace=wrap;html=1;strokeWidth=2;" vertex="1" parent="2ZWqnjDRBpzL2C1Y5E5V-5">
          <mxGeometry x="68.75" y="155.63" width="72.5" height="36.25" as="geometry" />
        </mxCell>
        <mxCell id="2ZWqnjDRBpzL2C1Y5E5V-2" value="CMS" style="swimlane;startSize=20;html=1;" vertex="1" parent="1">
          <mxGeometry x="70.00000000000045" y="65" width="307.5" height="520" as="geometry" />
        </mxCell>
        <mxCell id="2ZWqnjDRBpzL2C1Y5E5V-8" value="" style="edgeStyle=orthogonalEdgeStyle;rounded=0;orthogonalLoop=1;jettySize=auto;html=1;" edge="1" parent="2ZWqnjDRBpzL2C1Y5E5V-2" source="2ZWqnjDRBpzL2C1Y5E5V-6" target="2ZWqnjDRBpzL2C1Y5E5V-7">
          <mxGeometry relative="1" as="geometry" />
        </mxCell>
        <mxCell id="2ZWqnjDRBpzL2C1Y5E5V-6" value="开始" style="strokeWidth=2;html=1;shape=mxgraph.flowchart.start_2;whiteSpace=wrap;" vertex="1" parent="2ZWqnjDRBpzL2C1Y5E5V-2">
          <mxGeometry x="70" y="75" width="45" height="45" as="geometry" />
        </mxCell>
        <mxCell id="2ZWqnjDRBpzL2C1Y5E5V-7" value="新建优惠券&lt;br&gt;设置转跳链接" style="whiteSpace=wrap;html=1;strokeWidth=2;" vertex="1" parent="2ZWqnjDRBpzL2C1Y5E5V-2">
          <mxGeometry x="55" y="155" width="75" height="37.5" as="geometry" />
        </mxCell>
        <mxCell id="2ZWqnjDRBpzL2C1Y5E5V-3" value="商城" style="swimlane;startSize=20;html=1;" vertex="1" parent="1">
          <mxGeometry x="260.00000000000045" y="65" width="220" height="520" as="geometry" />
        </mxCell>
        <mxCell id="2ZWqnjDRBpzL2C1Y5E5V-4" value="券" style="swimlane;startSize=20;html=1;" vertex="1" parent="1">
          <mxGeometry x="480.00000000000045" y="65" width="210" height="520" as="geometry" />
        </mxCell>
        <mxCell id="2ZWqnjDRBpzL2C1Y5E5V-10" value="" style="edgeStyle=orthogonalEdgeStyle;rounded=0;orthogonalLoop=1;jettySize=auto;html=1;" edge="1" parent="1" source="2ZWqnjDRBpzL2C1Y5E5V-7" target="2ZWqnjDRBpzL2C1Y5E5V-9">
          <mxGeometry relative="1" as="geometry" />
        </mxCell>
      </root>
    </mxGraphModel>
  </diagram>
</mxfile>
